<?xml version="1.0" standalone="no"?><!DOCTYPE svg PUBLIC "-//W3C//DTD SVG 1.1//EN" "http://www.w3.org/Graphics/SVG/1.1/DTD/svg11.dtd"><svg t="1605258210426" class="icon" viewBox="0 0 1024 1024" version="1.1" xmlns="http://www.w3.org/2000/svg" p-id="9474" xmlns:xlink="http://www.w3.org/1999/xlink" width="200" height="200"><defs><style type="text/css"></style></defs><path d="M815 561.08a109.28 109.28 0 0 0-65.51 21.73l-63.91-35.27a164.87 164.87 0 0 0-27.14-150.67L739.05 314a124.46 124.46 0 1 0-56.45-42.35l-78 80.16a165 165 0 0 0-126.49-11.1l-66.24-111a109.77 109.77 0 1 0-55.14 44.2l60.71 101.71a165.3 165.3 0 0 0-48.85 79.83l-81.21 1.69a124.17 124.17 0 1 0 13.51 69.73l64.43-1.34A165.6 165.6 0 0 0 466 651c-8.45 43.42-13.71 70.93-17 88.57a109.91 109.91 0 1 0 69.48 9.43c4.34-23 10.75-56.25 16.54-86.09a164.72 164.72 0 0 0 115.83-54.61l58.57 32.33A109.87 109.87 0 1 0 815 561.08zM279.47 170.64a39.87 39.87 0 1 1 39.86 39.87 39.91 39.91 0 0 1-39.86-39.87z m502.74-27.34A54.22 54.22 0 1 1 728 197.52a54.28 54.28 0 0 1 54.21-54.22zM177.32 568.83a54.22 54.22 0 1 1 54.22-54.22 54.28 54.28 0 0 1-54.22 54.22z m292.35 318.49a39.87 39.87 0 1 1 39.86-39.87 39.91 39.91 0 0 1-39.86 39.87z m58.46-294.22a95.44 95.44 0 0 1-11.53-0.7c-1.08-0.32-2.19-0.6-3.32-0.82A35.12 35.12 0 0 0 508 591a95.1 95.1 0 1 1 20.09 2.14zM815 710.82A39.87 39.87 0 1 1 854.9 671a39.92 39.92 0 0 1-39.9 39.82z" fill="#1296db" p-id="9475"></path></svg>